# xmcd CD database file
#
# Track frame offsets:
#	150
#	12960
#	25565
#	36925
#	50155
#	63122
#	78065
#	91242
#	106795
#	119050
#	132137
#	145992
#	160570
#	174300
#	186565
#	199922
#	215277
#	229117
#	242915
#	255670
#	268397
#
# Disc length: 3752 seconds
#
# Revision: 1
# Processed by: cddbd v1.4PL0 Copyright (c) Steve Scherf et al.
# Submitted via: CDex 1.40Beta8
#
DISCID=220ea615
DTITLE=Big Bill Broonzy - The Father Of Chicago Blues Gutiar
DYEAR=1900
DGENRE=Blues
TTITLE0=Pig Meat Strut
TTITLE1=I Can't Be Satisfied
TTITLE2=Tadpole Blues
TTITLE3=Saturday Night Rub
TTITLE4=How You Want It Done?
TTITLE5=Mike Cow Blues
TTITLE6=I'll Be Back Home Again
TTITLE7=Serve It To Me Right
TTITLE8=Mississippi River Blues
TTITLE9=Something Good
TTITLE10=Mountain Blues
TTITLE11=I Can't Make You Satisfied
TTITLE12=I.c.blues
TTITLE13=Messed Up In Love
TTITLE14=Why Don't You Do Right?
TTITLE15=I Want You By My Side (jazz Gillum)
TTITLE16=I'm Feeling Low Down (washboard Sam)
TTITLE17=She Belongs To The Devil (washboard Sam)
TTITLE18=What's Gettin' Wrong With You? (sonny Boy Williamson)
TTITLE19=Come On Baby And Take A Walk (sonny Boy Williamson)
TTITLE20=Hey,hey
EXTD=ID3G: 0
EXTT0=
EXTT1=
EXTT2=
EXTT3=
EXTT4=
EXTT5=
EXTT6=
EXTT7=
EXTT8=
EXTT9=
EXTT10=
EXTT11=
EXTT12=
EXTT13=
EXTT14=
EXTT15=
EXTT16=
EXTT17=
EXTT18=
EXTT19=
EXTT20=
PLAYORDER=
